<svg xmlns="http://www.w3.org/2000/svg" viewBox="0 0 512 512" width="512" height="512">
<rect width="512" height="512" fill="#FFFFFF"/>
<g transform="translate(58.00 224.88) scale(0.62245)" fill="#0A0A0A" fill-rule="evenodd">
<path d="M0.0 0 H15.0 V42.5 H63.0 V0 H78.0 V100.0 H63.0 V57.5 H15.0 V100.0 H0.0 Z M92.0 50.0 A43.0 50.0 0 1 0 178.0 50.0 A43.0 50.0 0 1 0 92.0 50.0 Z M107.0 50.0 A28.0 35.0 0 1 1 163.0 50.0 A28.0 35.0 0 1 1 107.0 50.0 Z M192.0 0 H239.5 A32.5 28.0 0 0 1 239.5 56.0 H225.0 L272.0 100.0 H248.0 L207.0 56.0 V100.0 H192.0 Z M207.0 15.0 V41.0 H239.5 A17.5 13.0 0 0 0 239.5 15.0 Z M286.0 0 H301.0 V100.0 H286.0 Z M315.0 0 H389.0 V18.0 L336.0 85.0 H389.0 V100.0 H315.0 V82.0 L368.0 15.0 H315.0 Z M403.0 50.0 A43.0 50.0 0 1 0 489.0 50.0 A43.0 50.0 0 1 0 403.0 50.0 Z M418.0 50.0 A28.0 35.0 0 1 1 474.0 50.0 A28.0 35.0 0 1 1 418.0 50.0 Z M503.0 0 H525.0 L568.0 66.0 V0 H583.0 V100.0 H561.0 L518.0 34 V100.0 H503.0 Z"/>
<g transform="translate(592.00 4.00) scale(0.34)">
<path d="M0 0 H58 V11.0 H34.5 V70 H23.5 V11.0 H0 Z"/>
<path d="M70 0 H81.0 L100 44 L119 0 H130 V70 H119.0 V22 L104 62 H96 L81.0 22 V70 H70 Z"/>
</g>
</g>
</svg>